<mxfile host="65bd71144e">
    <diagram id="7wHIP8QctHhdaumBSgFZ" name="Page-1">
        <mxGraphModel dx="1358" dy="967" grid="1" gridSize="10" guides="1" tooltips="1" connect="1" arrows="1" fold="1" page="1" pageScale="1" pageWidth="1169" pageHeight="827" math="0" shadow="0">
            <root>
                <mxCell id="0"/>
                <mxCell id="1" parent="0"/>
                <mxCell id="78" style="edgeStyle=orthogonalEdgeStyle;rounded=0;orthogonalLoop=1;jettySize=auto;html=1;exitX=0.75;exitY=1;exitDx=0;exitDy=0;entryX=0.75;entryY=0;entryDx=0;entryDy=0;strokeColor=#000000;endArrow=oval;endFill=1;" edge="1" parent="1" source="71" target="74">
                    <mxGeometry relative="1" as="geometry"/>
                </mxCell>
                <mxCell id="88" style="edgeStyle=orthogonalEdgeStyle;rounded=0;orthogonalLoop=1;jettySize=auto;html=1;exitX=0.5;exitY=0;exitDx=0;exitDy=0;entryX=0.5;entryY=1;entryDx=0;entryDy=0;strokeColor=#000000;endArrow=oval;endFill=1;" edge="1" parent="1" source="71" target="81">
                    <mxGeometry relative="1" as="geometry"/>
                </mxCell>
                <mxCell id="89" style="edgeStyle=orthogonalEdgeStyle;rounded=0;orthogonalLoop=1;jettySize=auto;html=1;exitX=0.75;exitY=0;exitDx=0;exitDy=0;entryX=0.75;entryY=1;entryDx=0;entryDy=0;strokeColor=#000000;endArrow=oval;endFill=1;" edge="1" parent="1" source="71" target="81">
                    <mxGeometry relative="1" as="geometry"/>
                </mxCell>
                <mxCell id="91" style="edgeStyle=orthogonalEdgeStyle;rounded=0;orthogonalLoop=1;jettySize=auto;html=1;exitX=0.25;exitY=0;exitDx=0;exitDy=0;entryX=0.75;entryY=1;entryDx=0;entryDy=0;strokeColor=#000000;endArrow=oval;endFill=1;" edge="1" parent="1" source="71" target="86">
                    <mxGeometry relative="1" as="geometry">
                        <Array as="points">
                            <mxPoint x="730" y="240"/>
                            <mxPoint x="590" y="240"/>
                        </Array>
                    </mxGeometry>
                </mxCell>
                <mxCell id="92" style="edgeStyle=orthogonalEdgeStyle;rounded=0;orthogonalLoop=1;jettySize=auto;html=1;exitX=0;exitY=0;exitDx=0;exitDy=0;entryX=0.5;entryY=1;entryDx=0;entryDy=0;strokeColor=#000000;endArrow=oval;endFill=1;" edge="1" parent="1" source="71" target="86">
                    <mxGeometry relative="1" as="geometry">
                        <Array as="points">
                            <mxPoint x="700" y="260"/>
                            <mxPoint x="560" y="260"/>
                        </Array>
                    </mxGeometry>
                </mxCell>
                <mxCell id="101" style="edgeStyle=orthogonalEdgeStyle;rounded=0;orthogonalLoop=1;jettySize=auto;html=1;exitX=0.5;exitY=1;exitDx=0;exitDy=0;entryX=0.5;entryY=0;entryDx=0;entryDy=0;strokeColor=#000000;endArrow=oval;endFill=1;" edge="1" parent="1" source="71" target="74">
                    <mxGeometry relative="1" as="geometry"/>
                </mxCell>
                <mxCell id="tQcs1x4qdCquMWlzKXJP-105" style="edgeStyle=orthogonalEdgeStyle;rounded=0;orthogonalLoop=1;jettySize=auto;html=1;exitX=0;exitY=0.25;exitDx=0;exitDy=0;entryX=1;entryY=0.25;entryDx=0;entryDy=0;endArrow=oval;endFill=1;strokeColor=#000000;" edge="1" parent="1" source="71" target="94">
                    <mxGeometry relative="1" as="geometry"/>
                </mxCell>
                <mxCell id="tQcs1x4qdCquMWlzKXJP-106" style="edgeStyle=orthogonalEdgeStyle;rounded=0;orthogonalLoop=1;jettySize=auto;html=1;exitX=0;exitY=0.75;exitDx=0;exitDy=0;entryX=1;entryY=0.75;entryDx=0;entryDy=0;endArrow=oval;endFill=1;strokeColor=#000000;" edge="1" parent="1" source="71" target="94">
                    <mxGeometry relative="1" as="geometry"/>
                </mxCell>
                <mxCell id="71" value="&lt;font color=&quot;#000000&quot;&gt;Node&lt;/font&gt;" style="rounded=0;whiteSpace=wrap;html=1;shadow=0;fillColor=none;strokeColor=#000000;" vertex="1" parent="1">
                    <mxGeometry x="700" y="380" width="120" height="40" as="geometry"/>
                </mxCell>
                <mxCell id="75" style="edgeStyle=orthogonalEdgeStyle;rounded=0;orthogonalLoop=1;jettySize=auto;html=1;entryX=1;entryY=0.5;entryDx=0;entryDy=0;exitX=0.5;exitY=0;exitDx=0;exitDy=0;strokeColor=#000000;endArrow=oval;endFill=1;" edge="1" parent="1" source="73" target="81">
                    <mxGeometry relative="1" as="geometry"/>
                </mxCell>
                <mxCell id="76" style="edgeStyle=orthogonalEdgeStyle;rounded=0;orthogonalLoop=1;jettySize=auto;html=1;exitX=0.5;exitY=1;exitDx=0;exitDy=0;entryX=1;entryY=0.5;entryDx=0;entryDy=0;strokeColor=#000000;endArrow=oval;endFill=1;" edge="1" parent="1" source="73" target="74">
                    <mxGeometry relative="1" as="geometry"/>
                </mxCell>
                <mxCell id="87" style="edgeStyle=orthogonalEdgeStyle;rounded=0;orthogonalLoop=1;jettySize=auto;html=1;exitX=0;exitY=0.5;exitDx=0;exitDy=0;entryX=1;entryY=0.5;entryDx=0;entryDy=0;strokeColor=#000000;endArrow=oval;endFill=1;" edge="1" parent="1" source="73" target="71">
                    <mxGeometry relative="1" as="geometry"/>
                </mxCell>
                <mxCell id="73" value="&lt;font color=&quot;#000000&quot;&gt;Operator&lt;/font&gt;" style="rounded=0;whiteSpace=wrap;html=1;shadow=0;fillColor=none;strokeColor=#000000;" vertex="1" parent="1">
                    <mxGeometry x="900" y="380" width="120" height="40" as="geometry"/>
                </mxCell>
                <mxCell id="80" style="edgeStyle=orthogonalEdgeStyle;rounded=0;orthogonalLoop=1;jettySize=auto;html=1;exitX=0;exitY=0.5;exitDx=0;exitDy=0;entryX=1;entryY=0.5;entryDx=0;entryDy=0;strokeColor=#000000;endArrow=oval;endFill=1;" edge="1" parent="1" source="74" target="79">
                    <mxGeometry relative="1" as="geometry"/>
                </mxCell>
                <mxCell id="103" style="edgeStyle=orthogonalEdgeStyle;rounded=0;orthogonalLoop=1;jettySize=auto;html=1;exitX=0.25;exitY=1;exitDx=0;exitDy=0;entryX=1;entryY=0.5;entryDx=0;entryDy=0;strokeColor=#000000;endArrow=oval;endFill=1;" edge="1" parent="1" source="74" target="102">
                    <mxGeometry relative="1" as="geometry">
                        <Array as="points">
                            <mxPoint x="730" y="600"/>
                        </Array>
                    </mxGeometry>
                </mxCell>
                <mxCell id="74" value="&lt;font color=&quot;#000000&quot;&gt;Edge&lt;/font&gt;" style="rounded=0;whiteSpace=wrap;html=1;shadow=0;fillColor=none;strokeColor=#000000;" vertex="1" parent="1">
                    <mxGeometry x="700" y="500" width="120" height="40" as="geometry"/>
                </mxCell>
                <mxCell id="79" value="&lt;font color=&quot;#000000&quot;&gt;Edgetime&lt;/font&gt;" style="rounded=0;whiteSpace=wrap;html=1;shadow=0;fillColor=none;strokeColor=#000000;" vertex="1" parent="1">
                    <mxGeometry x="500" y="500" width="120" height="40" as="geometry"/>
                </mxCell>
                <mxCell id="90" style="edgeStyle=orthogonalEdgeStyle;rounded=0;orthogonalLoop=1;jettySize=auto;html=1;exitX=0.25;exitY=0;exitDx=0;exitDy=0;entryX=0.5;entryY=0;entryDx=0;entryDy=0;strokeColor=#000000;endArrow=oval;endFill=1;" edge="1" parent="1" source="81" target="86">
                    <mxGeometry relative="1" as="geometry"/>
                </mxCell>
                <mxCell id="93" style="edgeStyle=orthogonalEdgeStyle;rounded=0;orthogonalLoop=1;jettySize=auto;html=1;exitX=0.75;exitY=0;exitDx=0;exitDy=0;entryX=0.5;entryY=1;entryDx=0;entryDy=0;strokeColor=#000000;endArrow=oval;endFill=1;" edge="1" parent="1" source="81" target="79">
                    <mxGeometry relative="1" as="geometry">
                        <Array as="points">
                            <mxPoint x="790" y="160"/>
                            <mxPoint x="1060" y="160"/>
                            <mxPoint x="1060" y="660"/>
                            <mxPoint x="560" y="660"/>
                        </Array>
                    </mxGeometry>
                </mxCell>
                <mxCell id="81" value="&lt;font color=&quot;#000000&quot;&gt;Transportation&lt;/font&gt;" style="rounded=0;whiteSpace=wrap;html=1;shadow=0;fillColor=none;strokeColor=#000000;" vertex="1" parent="1">
                    <mxGeometry x="700" y="180" width="120" height="40" as="geometry"/>
                </mxCell>
                <mxCell id="95" style="edgeStyle=orthogonalEdgeStyle;rounded=0;orthogonalLoop=1;jettySize=auto;html=1;exitX=0.25;exitY=1;exitDx=0;exitDy=0;entryX=0.25;entryY=0;entryDx=0;entryDy=0;strokeColor=#000000;endArrow=oval;endFill=1;dashed=1;" edge="1" parent="1" source="86" target="94">
                    <mxGeometry relative="1" as="geometry"/>
                </mxCell>
                <mxCell id="86" value="&lt;font color=&quot;#000000&quot;&gt;Leg&lt;/font&gt;" style="rounded=0;whiteSpace=wrap;html=1;shadow=0;fillColor=none;strokeColor=#000000;" vertex="1" parent="1">
                    <mxGeometry x="500" y="180" width="120" height="40" as="geometry"/>
                </mxCell>
                <mxCell id="94" value="&lt;font color=&quot;#000000&quot;&gt;Trip&lt;/font&gt;" style="rounded=0;whiteSpace=wrap;html=1;shadow=0;fillColor=none;strokeColor=#000000;" vertex="1" parent="1">
                    <mxGeometry x="500" y="380" width="120" height="40" as="geometry"/>
                </mxCell>
                <mxCell id="100" style="edgeStyle=orthogonalEdgeStyle;rounded=0;orthogonalLoop=1;jettySize=auto;html=1;exitX=0.75;exitY=1;exitDx=0;exitDy=0;entryX=0;entryY=0.5;entryDx=0;entryDy=0;strokeColor=#000000;endArrow=oval;endFill=1;" edge="1" parent="1" source="97" target="94">
                    <mxGeometry relative="1" as="geometry"/>
                </mxCell>
                <mxCell id="tQcs1x4qdCquMWlzKXJP-107" style="edgeStyle=orthogonalEdgeStyle;rounded=0;orthogonalLoop=1;jettySize=auto;html=1;exitX=0.75;exitY=0;exitDx=0;exitDy=0;entryX=0;entryY=0.5;entryDx=0;entryDy=0;endArrow=oval;endFill=1;strokeColor=#000000;" edge="1" parent="1" source="97" target="86">
                    <mxGeometry relative="1" as="geometry"/>
                </mxCell>
                <mxCell id="97" value="&lt;font color=&quot;#000000&quot;&gt;Load&lt;/font&gt;" style="rounded=0;whiteSpace=wrap;html=1;shadow=0;fillColor=none;strokeColor=#000000;" vertex="1" parent="1">
                    <mxGeometry x="360" y="280" width="120" height="40" as="geometry"/>
                </mxCell>
                <mxCell id="99" style="edgeStyle=orthogonalEdgeStyle;rounded=0;orthogonalLoop=1;jettySize=auto;html=1;exitX=1;exitY=0.5;exitDx=0;exitDy=0;entryX=0;entryY=0.5;entryDx=0;entryDy=0;strokeColor=#000000;endArrow=oval;endFill=1;" edge="1" parent="1" source="98" target="97">
                    <mxGeometry relative="1" as="geometry"/>
                </mxCell>
                <mxCell id="98" value="&lt;font color=&quot;#000000&quot;&gt;Person&lt;/font&gt;" style="rounded=0;whiteSpace=wrap;html=1;shadow=0;fillColor=none;strokeColor=#000000;" vertex="1" parent="1">
                    <mxGeometry x="160" y="280" width="120" height="40" as="geometry"/>
                </mxCell>
                <mxCell id="104" style="edgeStyle=orthogonalEdgeStyle;rounded=0;orthogonalLoop=1;jettySize=auto;html=1;exitX=0;exitY=0.5;exitDx=0;exitDy=0;entryX=0.75;entryY=1;entryDx=0;entryDy=0;strokeColor=#000000;endArrow=oval;endFill=1;dashed=1;" edge="1" parent="1" source="102" target="79">
                    <mxGeometry relative="1" as="geometry">
                        <Array as="points">
                            <mxPoint x="590" y="600"/>
                        </Array>
                    </mxGeometry>
                </mxCell>
                <mxCell id="102" value="&lt;font color=&quot;#000000&quot;&gt;Graph&lt;/font&gt;" style="rounded=0;whiteSpace=wrap;html=1;shadow=0;fillColor=none;strokeColor=#000000;" vertex="1" parent="1">
                    <mxGeometry x="600" y="580" width="120" height="40" as="geometry"/>
                </mxCell>
            </root>
        </mxGraphModel>
    </diagram>
    <diagram id="3BifBNaP4DPaqKkwOwQi" name="Page-2">
        <mxGraphModel dx="509" dy="967" grid="1" gridSize="10" guides="1" tooltips="1" connect="1" arrows="1" fold="1" page="1" pageScale="1" pageWidth="1169" pageHeight="827" math="0" shadow="0">
            <root>
                <mxCell id="NZHUvhsUTOCriIzTWDu8-0"/>
                <mxCell id="NZHUvhsUTOCriIzTWDu8-1" parent="NZHUvhsUTOCriIzTWDu8-0"/>
                <mxCell id="-xeB68r9lJnW_-NoTv3e-0" style="edgeStyle=orthogonalEdgeStyle;rounded=0;orthogonalLoop=1;jettySize=auto;html=1;exitX=0.5;exitY=1;exitDx=0;exitDy=0;entryX=0.5;entryY=0;entryDx=0;entryDy=0;" edge="1" parent="NZHUvhsUTOCriIzTWDu8-1" source="-xeB68r9lJnW_-NoTv3e-1" target="-xeB68r9lJnW_-NoTv3e-6">
                    <mxGeometry relative="1" as="geometry">
                        <mxPoint x="2110" y="550" as="targetPoint"/>
                    </mxGeometry>
                </mxCell>
                <mxCell id="-xeB68r9lJnW_-NoTv3e-1" value="Node" style="swimlane;fontStyle=0;childLayout=stackLayout;horizontal=1;startSize=26;horizontalStack=0;resizeParent=1;resizeParentMax=0;resizeLast=0;collapsible=1;marginBottom=0;" vertex="1" parent="NZHUvhsUTOCriIzTWDu8-1">
                    <mxGeometry x="1950" y="200" width="140" height="104" as="geometry"/>
                </mxCell>
                <mxCell id="-xeB68r9lJnW_-NoTv3e-2" value="-    &#10;" style="text;strokeColor=none;fillColor=none;align=left;verticalAlign=top;spacingLeft=4;spacingRight=4;overflow=hidden;rotatable=0;points=[[0,0.5],[1,0.5]];portConstraint=eastwest;" vertex="1" parent="-xeB68r9lJnW_-NoTv3e-1">
                    <mxGeometry y="26" width="140" height="26" as="geometry"/>
                </mxCell>
                <mxCell id="-xeB68r9lJnW_-NoTv3e-3" value="-" style="text;strokeColor=none;fillColor=none;align=left;verticalAlign=top;spacingLeft=4;spacingRight=4;overflow=hidden;rotatable=0;points=[[0,0.5],[1,0.5]];portConstraint=eastwest;" vertex="1" parent="-xeB68r9lJnW_-NoTv3e-1">
                    <mxGeometry y="52" width="140" height="26" as="geometry"/>
                </mxCell>
                <mxCell id="-xeB68r9lJnW_-NoTv3e-4" value="-" style="text;strokeColor=none;fillColor=none;align=left;verticalAlign=top;spacingLeft=4;spacingRight=4;overflow=hidden;rotatable=0;points=[[0,0.5],[1,0.5]];portConstraint=eastwest;" vertex="1" parent="-xeB68r9lJnW_-NoTv3e-1">
                    <mxGeometry y="78" width="140" height="26" as="geometry"/>
                </mxCell>
                <mxCell id="-xeB68r9lJnW_-NoTv3e-5" style="edgeStyle=orthogonalEdgeStyle;rounded=0;orthogonalLoop=1;jettySize=auto;html=1;exitX=0.25;exitY=0;exitDx=0;exitDy=0;entryX=1;entryY=0.5;entryDx=0;entryDy=0;" edge="1" parent="NZHUvhsUTOCriIzTWDu8-1" source="-xeB68r9lJnW_-NoTv3e-6" target="-xeB68r9lJnW_-NoTv3e-50">
                    <mxGeometry relative="1" as="geometry"/>
                </mxCell>
                <mxCell id="-xeB68r9lJnW_-NoTv3e-6" value="Edge" style="swimlane;fontStyle=0;childLayout=stackLayout;horizontal=1;startSize=26;horizontalStack=0;resizeParent=1;resizeParentMax=0;resizeLast=0;collapsible=1;marginBottom=0;" vertex="1" parent="NZHUvhsUTOCriIzTWDu8-1">
                    <mxGeometry x="1950" y="554" width="140" height="104" as="geometry"/>
                </mxCell>
                <mxCell id="-xeB68r9lJnW_-NoTv3e-7" value="-    &#10;" style="text;strokeColor=none;fillColor=none;align=left;verticalAlign=top;spacingLeft=4;spacingRight=4;overflow=hidden;rotatable=0;points=[[0,0.5],[1,0.5]];portConstraint=eastwest;" vertex="1" parent="-xeB68r9lJnW_-NoTv3e-6">
                    <mxGeometry y="26" width="140" height="26" as="geometry"/>
                </mxCell>
                <mxCell id="-xeB68r9lJnW_-NoTv3e-8" value="-" style="text;strokeColor=none;fillColor=none;align=left;verticalAlign=top;spacingLeft=4;spacingRight=4;overflow=hidden;rotatable=0;points=[[0,0.5],[1,0.5]];portConstraint=eastwest;" vertex="1" parent="-xeB68r9lJnW_-NoTv3e-6">
                    <mxGeometry y="52" width="140" height="26" as="geometry"/>
                </mxCell>
                <mxCell id="-xeB68r9lJnW_-NoTv3e-9" value="-" style="text;strokeColor=none;fillColor=none;align=left;verticalAlign=top;spacingLeft=4;spacingRight=4;overflow=hidden;rotatable=0;points=[[0,0.5],[1,0.5]];portConstraint=eastwest;" vertex="1" parent="-xeB68r9lJnW_-NoTv3e-6">
                    <mxGeometry y="78" width="140" height="26" as="geometry"/>
                </mxCell>
                <mxCell id="-xeB68r9lJnW_-NoTv3e-10" value="Edgetime" style="swimlane;fontStyle=0;childLayout=stackLayout;horizontal=1;startSize=26;horizontalStack=0;resizeParent=1;resizeParentMax=0;resizeLast=0;collapsible=1;marginBottom=0;" vertex="1" parent="NZHUvhsUTOCriIzTWDu8-1">
                    <mxGeometry x="1750" y="554" width="140" height="104" as="geometry"/>
                </mxCell>
                <mxCell id="-xeB68r9lJnW_-NoTv3e-11" value="-    &#10;" style="text;strokeColor=none;fillColor=none;align=left;verticalAlign=top;spacingLeft=4;spacingRight=4;overflow=hidden;rotatable=0;points=[[0,0.5],[1,0.5]];portConstraint=eastwest;" vertex="1" parent="-xeB68r9lJnW_-NoTv3e-10">
                    <mxGeometry y="26" width="140" height="26" as="geometry"/>
                </mxCell>
                <mxCell id="-xeB68r9lJnW_-NoTv3e-12" value="-" style="text;strokeColor=none;fillColor=none;align=left;verticalAlign=top;spacingLeft=4;spacingRight=4;overflow=hidden;rotatable=0;points=[[0,0.5],[1,0.5]];portConstraint=eastwest;" vertex="1" parent="-xeB68r9lJnW_-NoTv3e-10">
                    <mxGeometry y="52" width="140" height="26" as="geometry"/>
                </mxCell>
                <mxCell id="-xeB68r9lJnW_-NoTv3e-13" value="-" style="text;strokeColor=none;fillColor=none;align=left;verticalAlign=top;spacingLeft=4;spacingRight=4;overflow=hidden;rotatable=0;points=[[0,0.5],[1,0.5]];portConstraint=eastwest;" vertex="1" parent="-xeB68r9lJnW_-NoTv3e-10">
                    <mxGeometry y="78" width="140" height="26" as="geometry"/>
                </mxCell>
                <mxCell id="-xeB68r9lJnW_-NoTv3e-14" style="edgeStyle=orthogonalEdgeStyle;rounded=0;orthogonalLoop=1;jettySize=auto;html=1;exitX=0.5;exitY=1;exitDx=0;exitDy=0;entryX=1;entryY=0.5;entryDx=0;entryDy=0;" edge="1" parent="NZHUvhsUTOCriIzTWDu8-1" source="-xeB68r9lJnW_-NoTv3e-15" target="-xeB68r9lJnW_-NoTv3e-21">
                    <mxGeometry relative="1" as="geometry"/>
                </mxCell>
                <mxCell id="-xeB68r9lJnW_-NoTv3e-15" value="Transportation" style="swimlane;fontStyle=0;childLayout=stackLayout;horizontal=1;startSize=26;horizontalStack=0;resizeParent=1;resizeParentMax=0;resizeLast=0;collapsible=1;marginBottom=0;" vertex="1" parent="NZHUvhsUTOCriIzTWDu8-1">
                    <mxGeometry x="1610" y="370" width="140" height="104" as="geometry"/>
                </mxCell>
                <mxCell id="-xeB68r9lJnW_-NoTv3e-16" value="-    &#10;" style="text;strokeColor=none;fillColor=none;align=left;verticalAlign=top;spacingLeft=4;spacingRight=4;overflow=hidden;rotatable=0;points=[[0,0.5],[1,0.5]];portConstraint=eastwest;" vertex="1" parent="-xeB68r9lJnW_-NoTv3e-15">
                    <mxGeometry y="26" width="140" height="26" as="geometry"/>
                </mxCell>
                <mxCell id="-xeB68r9lJnW_-NoTv3e-17" value="-" style="text;strokeColor=none;fillColor=none;align=left;verticalAlign=top;spacingLeft=4;spacingRight=4;overflow=hidden;rotatable=0;points=[[0,0.5],[1,0.5]];portConstraint=eastwest;" vertex="1" parent="-xeB68r9lJnW_-NoTv3e-15">
                    <mxGeometry y="52" width="140" height="26" as="geometry"/>
                </mxCell>
                <mxCell id="-xeB68r9lJnW_-NoTv3e-18" value="-" style="text;strokeColor=none;fillColor=none;align=left;verticalAlign=top;spacingLeft=4;spacingRight=4;overflow=hidden;rotatable=0;points=[[0,0.5],[1,0.5]];portConstraint=eastwest;" vertex="1" parent="-xeB68r9lJnW_-NoTv3e-15">
                    <mxGeometry y="78" width="140" height="26" as="geometry"/>
                </mxCell>
                <mxCell id="-xeB68r9lJnW_-NoTv3e-19" value="Leg" style="swimlane;fontStyle=0;childLayout=stackLayout;horizontal=1;startSize=26;horizontalStack=0;resizeParent=1;resizeParentMax=0;resizeLast=0;collapsible=1;marginBottom=0;" vertex="1" parent="NZHUvhsUTOCriIzTWDu8-1">
                    <mxGeometry x="1440" y="554" width="140" height="104" as="geometry"/>
                </mxCell>
                <mxCell id="-xeB68r9lJnW_-NoTv3e-20" value="-    &#10;" style="text;strokeColor=none;fillColor=none;align=left;verticalAlign=top;spacingLeft=4;spacingRight=4;overflow=hidden;rotatable=0;points=[[0,0.5],[1,0.5]];portConstraint=eastwest;" vertex="1" parent="-xeB68r9lJnW_-NoTv3e-19">
                    <mxGeometry y="26" width="140" height="26" as="geometry"/>
                </mxCell>
                <mxCell id="-xeB68r9lJnW_-NoTv3e-21" value="-" style="text;strokeColor=none;fillColor=none;align=left;verticalAlign=top;spacingLeft=4;spacingRight=4;overflow=hidden;rotatable=0;points=[[0,0.5],[1,0.5]];portConstraint=eastwest;" vertex="1" parent="-xeB68r9lJnW_-NoTv3e-19">
                    <mxGeometry y="52" width="140" height="26" as="geometry"/>
                </mxCell>
                <mxCell id="-xeB68r9lJnW_-NoTv3e-22" value="-" style="text;strokeColor=none;fillColor=none;align=left;verticalAlign=top;spacingLeft=4;spacingRight=4;overflow=hidden;rotatable=0;points=[[0,0.5],[1,0.5]];portConstraint=eastwest;" vertex="1" parent="-xeB68r9lJnW_-NoTv3e-19">
                    <mxGeometry y="78" width="140" height="26" as="geometry"/>
                </mxCell>
                <mxCell id="-xeB68r9lJnW_-NoTv3e-23" value="Trip" style="swimlane;fontStyle=0;childLayout=stackLayout;horizontal=1;startSize=26;horizontalStack=0;resizeParent=1;resizeParentMax=0;resizeLast=0;collapsible=1;marginBottom=0;" vertex="1" parent="NZHUvhsUTOCriIzTWDu8-1">
                    <mxGeometry x="1240" y="554" width="140" height="104" as="geometry"/>
                </mxCell>
                <mxCell id="-xeB68r9lJnW_-NoTv3e-24" value="-    &#10;" style="text;strokeColor=none;fillColor=none;align=left;verticalAlign=top;spacingLeft=4;spacingRight=4;overflow=hidden;rotatable=0;points=[[0,0.5],[1,0.5]];portConstraint=eastwest;" vertex="1" parent="-xeB68r9lJnW_-NoTv3e-23">
                    <mxGeometry y="26" width="140" height="26" as="geometry"/>
                </mxCell>
                <mxCell id="-xeB68r9lJnW_-NoTv3e-25" value="-" style="text;strokeColor=none;fillColor=none;align=left;verticalAlign=top;spacingLeft=4;spacingRight=4;overflow=hidden;rotatable=0;points=[[0,0.5],[1,0.5]];portConstraint=eastwest;" vertex="1" parent="-xeB68r9lJnW_-NoTv3e-23">
                    <mxGeometry y="52" width="140" height="26" as="geometry"/>
                </mxCell>
                <mxCell id="-xeB68r9lJnW_-NoTv3e-26" value="-" style="text;strokeColor=none;fillColor=none;align=left;verticalAlign=top;spacingLeft=4;spacingRight=4;overflow=hidden;rotatable=0;points=[[0,0.5],[1,0.5]];portConstraint=eastwest;" vertex="1" parent="-xeB68r9lJnW_-NoTv3e-23">
                    <mxGeometry y="78" width="140" height="26" as="geometry"/>
                </mxCell>
                <mxCell id="-xeB68r9lJnW_-NoTv3e-27" style="edgeStyle=orthogonalEdgeStyle;rounded=0;orthogonalLoop=1;jettySize=auto;html=1;exitX=0.5;exitY=1;exitDx=0;exitDy=0;" edge="1" parent="NZHUvhsUTOCriIzTWDu8-1" source="-xeB68r9lJnW_-NoTv3e-28">
                    <mxGeometry relative="1" as="geometry">
                        <mxPoint x="1310" y="550" as="targetPoint"/>
                    </mxGeometry>
                </mxCell>
                <mxCell id="-xeB68r9lJnW_-NoTv3e-28" value="Load" style="swimlane;fontStyle=0;childLayout=stackLayout;horizontal=1;startSize=26;horizontalStack=0;resizeParent=1;resizeParentMax=0;resizeLast=0;collapsible=1;marginBottom=0;" vertex="1" parent="NZHUvhsUTOCriIzTWDu8-1">
                    <mxGeometry x="1240" y="350" width="140" height="104" as="geometry"/>
                </mxCell>
                <mxCell id="-xeB68r9lJnW_-NoTv3e-29" value="-    &#10;" style="text;strokeColor=none;fillColor=none;align=left;verticalAlign=top;spacingLeft=4;spacingRight=4;overflow=hidden;rotatable=0;points=[[0,0.5],[1,0.5]];portConstraint=eastwest;" vertex="1" parent="-xeB68r9lJnW_-NoTv3e-28">
                    <mxGeometry y="26" width="140" height="26" as="geometry"/>
                </mxCell>
                <mxCell id="-xeB68r9lJnW_-NoTv3e-30" value="-" style="text;strokeColor=none;fillColor=none;align=left;verticalAlign=top;spacingLeft=4;spacingRight=4;overflow=hidden;rotatable=0;points=[[0,0.5],[1,0.5]];portConstraint=eastwest;" vertex="1" parent="-xeB68r9lJnW_-NoTv3e-28">
                    <mxGeometry y="52" width="140" height="26" as="geometry"/>
                </mxCell>
                <mxCell id="-xeB68r9lJnW_-NoTv3e-31" value="-" style="text;strokeColor=none;fillColor=none;align=left;verticalAlign=top;spacingLeft=4;spacingRight=4;overflow=hidden;rotatable=0;points=[[0,0.5],[1,0.5]];portConstraint=eastwest;" vertex="1" parent="-xeB68r9lJnW_-NoTv3e-28">
                    <mxGeometry y="78" width="140" height="26" as="geometry"/>
                </mxCell>
                <mxCell id="-xeB68r9lJnW_-NoTv3e-32" style="edgeStyle=orthogonalEdgeStyle;rounded=0;orthogonalLoop=1;jettySize=auto;html=1;exitX=0.5;exitY=1;exitDx=0;exitDy=0;entryX=0.5;entryY=0;entryDx=0;entryDy=0;" edge="1" parent="NZHUvhsUTOCriIzTWDu8-1" source="-xeB68r9lJnW_-NoTv3e-33" target="-xeB68r9lJnW_-NoTv3e-28">
                    <mxGeometry relative="1" as="geometry"/>
                </mxCell>
                <mxCell id="-xeB68r9lJnW_-NoTv3e-33" value="Person" style="swimlane;fontStyle=0;childLayout=stackLayout;horizontal=1;startSize=26;horizontalStack=0;resizeParent=1;resizeParentMax=0;resizeLast=0;collapsible=1;marginBottom=0;" vertex="1" parent="NZHUvhsUTOCriIzTWDu8-1">
                    <mxGeometry x="1240" y="170" width="140" height="104" as="geometry"/>
                </mxCell>
                <mxCell id="-xeB68r9lJnW_-NoTv3e-34" value="-    &#10;" style="text;strokeColor=none;fillColor=none;align=left;verticalAlign=top;spacingLeft=4;spacingRight=4;overflow=hidden;rotatable=0;points=[[0,0.5],[1,0.5]];portConstraint=eastwest;" vertex="1" parent="-xeB68r9lJnW_-NoTv3e-33">
                    <mxGeometry y="26" width="140" height="26" as="geometry"/>
                </mxCell>
                <mxCell id="-xeB68r9lJnW_-NoTv3e-35" value="-" style="text;strokeColor=none;fillColor=none;align=left;verticalAlign=top;spacingLeft=4;spacingRight=4;overflow=hidden;rotatable=0;points=[[0,0.5],[1,0.5]];portConstraint=eastwest;" vertex="1" parent="-xeB68r9lJnW_-NoTv3e-33">
                    <mxGeometry y="52" width="140" height="26" as="geometry"/>
                </mxCell>
                <mxCell id="-xeB68r9lJnW_-NoTv3e-36" value="-" style="text;strokeColor=none;fillColor=none;align=left;verticalAlign=top;spacingLeft=4;spacingRight=4;overflow=hidden;rotatable=0;points=[[0,0.5],[1,0.5]];portConstraint=eastwest;" vertex="1" parent="-xeB68r9lJnW_-NoTv3e-33">
                    <mxGeometry y="78" width="140" height="26" as="geometry"/>
                </mxCell>
                <mxCell id="-xeB68r9lJnW_-NoTv3e-37" style="edgeStyle=orthogonalEdgeStyle;rounded=0;orthogonalLoop=1;jettySize=auto;html=1;exitX=0;exitY=0.5;exitDx=0;exitDy=0;entryX=1;entryY=0.5;entryDx=0;entryDy=0;" edge="1" parent="NZHUvhsUTOCriIzTWDu8-1" source="-xeB68r9lJnW_-NoTv3e-8" target="-xeB68r9lJnW_-NoTv3e-12">
                    <mxGeometry relative="1" as="geometry"/>
                </mxCell>
                <mxCell id="-xeB68r9lJnW_-NoTv3e-38" style="edgeStyle=orthogonalEdgeStyle;rounded=0;orthogonalLoop=1;jettySize=auto;html=1;exitX=1;exitY=0.5;exitDx=0;exitDy=0;" edge="1" parent="NZHUvhsUTOCriIzTWDu8-1" source="-xeB68r9lJnW_-NoTv3e-17">
                    <mxGeometry relative="1" as="geometry">
                        <mxPoint x="1790" y="554" as="targetPoint"/>
                        <Array as="points">
                            <mxPoint x="1790" y="435"/>
                            <mxPoint x="1790" y="554"/>
                        </Array>
                    </mxGeometry>
                </mxCell>
                <mxCell id="-xeB68r9lJnW_-NoTv3e-39" style="edgeStyle=orthogonalEdgeStyle;rounded=0;orthogonalLoop=1;jettySize=auto;html=1;exitX=0;exitY=0.5;exitDx=0;exitDy=0;entryX=0.5;entryY=0;entryDx=0;entryDy=0;" edge="1" parent="NZHUvhsUTOCriIzTWDu8-1" source="-xeB68r9lJnW_-NoTv3e-3" target="-xeB68r9lJnW_-NoTv3e-19">
                    <mxGeometry relative="1" as="geometry"/>
                </mxCell>
                <mxCell id="-xeB68r9lJnW_-NoTv3e-40" style="edgeStyle=orthogonalEdgeStyle;rounded=0;orthogonalLoop=1;jettySize=auto;html=1;exitX=0;exitY=0.5;exitDx=0;exitDy=0;entryX=1;entryY=0.5;entryDx=0;entryDy=0;" edge="1" parent="NZHUvhsUTOCriIzTWDu8-1" source="-xeB68r9lJnW_-NoTv3e-21" target="-xeB68r9lJnW_-NoTv3e-25">
                    <mxGeometry relative="1" as="geometry"/>
                </mxCell>
                <mxCell id="-xeB68r9lJnW_-NoTv3e-41" style="edgeStyle=orthogonalEdgeStyle;rounded=0;orthogonalLoop=1;jettySize=auto;html=1;exitX=0.5;exitY=0;exitDx=0;exitDy=0;entryX=1;entryY=0.5;entryDx=0;entryDy=0;" edge="1" parent="NZHUvhsUTOCriIzTWDu8-1" source="-xeB68r9lJnW_-NoTv3e-43" target="-xeB68r9lJnW_-NoTv3e-3">
                    <mxGeometry relative="1" as="geometry"/>
                </mxCell>
                <mxCell id="-xeB68r9lJnW_-NoTv3e-42" style="edgeStyle=orthogonalEdgeStyle;rounded=0;orthogonalLoop=1;jettySize=auto;html=1;entryX=1;entryY=0.5;entryDx=0;entryDy=0;" edge="1" parent="NZHUvhsUTOCriIzTWDu8-1" source="-xeB68r9lJnW_-NoTv3e-43" target="-xeB68r9lJnW_-NoTv3e-8">
                    <mxGeometry relative="1" as="geometry"/>
                </mxCell>
                <mxCell id="-xeB68r9lJnW_-NoTv3e-43" value="Operator" style="swimlane;fontStyle=0;childLayout=stackLayout;horizontal=1;startSize=26;horizontalStack=0;resizeParent=1;resizeParentMax=0;resizeLast=0;collapsible=1;marginBottom=0;" vertex="1" parent="NZHUvhsUTOCriIzTWDu8-1">
                    <mxGeometry x="2180" y="380" width="140" height="104" as="geometry"/>
                </mxCell>
                <mxCell id="-xeB68r9lJnW_-NoTv3e-44" value="-    &#10;" style="text;strokeColor=none;fillColor=none;align=left;verticalAlign=top;spacingLeft=4;spacingRight=4;overflow=hidden;rotatable=0;points=[[0,0.5],[1,0.5]];portConstraint=eastwest;" vertex="1" parent="-xeB68r9lJnW_-NoTv3e-43">
                    <mxGeometry y="26" width="140" height="26" as="geometry"/>
                </mxCell>
                <mxCell id="-xeB68r9lJnW_-NoTv3e-45" value="-" style="text;strokeColor=none;fillColor=none;align=left;verticalAlign=top;spacingLeft=4;spacingRight=4;overflow=hidden;rotatable=0;points=[[0,0.5],[1,0.5]];portConstraint=eastwest;" vertex="1" parent="-xeB68r9lJnW_-NoTv3e-43">
                    <mxGeometry y="52" width="140" height="26" as="geometry"/>
                </mxCell>
                <mxCell id="-xeB68r9lJnW_-NoTv3e-46" value="-" style="text;strokeColor=none;fillColor=none;align=left;verticalAlign=top;spacingLeft=4;spacingRight=4;overflow=hidden;rotatable=0;points=[[0,0.5],[1,0.5]];portConstraint=eastwest;" vertex="1" parent="-xeB68r9lJnW_-NoTv3e-43">
                    <mxGeometry y="78" width="140" height="26" as="geometry"/>
                </mxCell>
                <mxCell id="-xeB68r9lJnW_-NoTv3e-47" value="Graph" style="swimlane;fontStyle=0;childLayout=stackLayout;horizontal=1;startSize=26;horizontalStack=0;resizeParent=1;resizeParentMax=0;resizeLast=0;collapsible=1;marginBottom=0;" vertex="1" parent="NZHUvhsUTOCriIzTWDu8-1">
                    <mxGeometry x="1830" y="370" width="140" height="104" as="geometry"/>
                </mxCell>
                <mxCell id="-xeB68r9lJnW_-NoTv3e-48" value="-    &#10;" style="text;strokeColor=none;fillColor=none;align=left;verticalAlign=top;spacingLeft=4;spacingRight=4;overflow=hidden;rotatable=0;points=[[0,0.5],[1,0.5]];portConstraint=eastwest;" vertex="1" parent="-xeB68r9lJnW_-NoTv3e-47">
                    <mxGeometry y="26" width="140" height="26" as="geometry"/>
                </mxCell>
                <mxCell id="-xeB68r9lJnW_-NoTv3e-49" value="-" style="text;strokeColor=none;fillColor=none;align=left;verticalAlign=top;spacingLeft=4;spacingRight=4;overflow=hidden;rotatable=0;points=[[0,0.5],[1,0.5]];portConstraint=eastwest;" vertex="1" parent="-xeB68r9lJnW_-NoTv3e-47">
                    <mxGeometry y="52" width="140" height="26" as="geometry"/>
                </mxCell>
                <mxCell id="-xeB68r9lJnW_-NoTv3e-50" value="-" style="text;strokeColor=none;fillColor=none;align=left;verticalAlign=top;spacingLeft=4;spacingRight=4;overflow=hidden;rotatable=0;points=[[0,0.5],[1,0.5]];portConstraint=eastwest;" vertex="1" parent="-xeB68r9lJnW_-NoTv3e-47">
                    <mxGeometry y="78" width="140" height="26" as="geometry"/>
                </mxCell>
                <mxCell id="-xeB68r9lJnW_-NoTv3e-51" style="edgeStyle=orthogonalEdgeStyle;rounded=0;orthogonalLoop=1;jettySize=auto;html=1;exitX=0;exitY=0.5;exitDx=0;exitDy=0;entryX=0.5;entryY=0;entryDx=0;entryDy=0;" edge="1" parent="NZHUvhsUTOCriIzTWDu8-1" source="-xeB68r9lJnW_-NoTv3e-50" target="-xeB68r9lJnW_-NoTv3e-10">
                    <mxGeometry relative="1" as="geometry"/>
                </mxCell>
            </root>
        </mxGraphModel>
    </diagram>
</mxfile>